PathFileType	4	(X/Y/Z)	RBDS05\RBDS05runT45.trc
DataRate	CameraRate	NumFrames	NumMarkers	Units	OrigDataRate	OrigDataStartFrame	OrigNumFrames
150.000000	150.000000	4	32	mm	150.000000	562	4500
Frame#	Time	L.ASIS			L.Heel.Bottom			L.Heel.Lateral			L.Heel.Top			L.Iliac.Crest			L.MT1			L.MT5			L.PSIS			L.Shank.Bottom.Lateral			L.Shank.Bottom.Medial			L.Shank.Top.Lateral			L.Shank.Top.Medial			L.Thigh.Bottom.Lateral			L.Thigh.Bottom.Medial			L.Thigh.Top.Lateral			L.Thigh.Top.Medial			R.ASIS			R.ASY			R.Heel.Bottom			R.Heel.Lateral			R.Heel.Top			R.Iliac.Crest			R.MT5			R.PSIS			R.Shank.Bottom.Lateral			R.Shank.Bottom.Medial			R.Shank.Top.Lateral			R.Shank.Top.Medial			R.Thigh.Bottom.Lateral			R.Thigh.Bottom.Medial			R.Thigh.Top.Lateral			R.Thigh.Top.Medial			
		X1	Y1	Z1	X2	Y2	Z2	X3	Y3	Z3	X4	Y4	Z4	X5	Y5	Z5	X6	Y6	Z6	X7	Y7	Z7	X8	Y8	Z8	X9	Y9	Z9	X10	Y10	Z10	X11	Y11	Z11	X12	Y12	Z12	X13	Y13	Z13	X14	Y14	Z14	X15	Y15	Z15	X16	Y16	Z16	X17	Y17	Z17	X18	Y18	Z18	X19	Y19	Z19	X20	Y20	Z20	X21	Y21	Z21	X22	Y22	Z22	X23	Y23	Z23	X24	Y24	Z24	X25	Y25	Z25	X26	Y26	Z26	X27	Y27	Z27	X28	Y28	Z28	X29	Y29	Z29	X30	Y30	Z30	X31	Y31	Z31	X32	Y32	Z32	

563	3.746666666666667	2316.73480082616	963.3714851317752	914.9861625799761	2432.549638717258	62.14410846384591	991.2101559029657	2455.851525540083	88.30664477815201	947.0040981378414	2427.10085745832	111.3169068944206	990.7960908046489	2253.45378803189	1039.382143641673	868.8028142148136	2620.800464358217	144.3138524443498	1021.53592507456	2597.323564055674	124.0395791919542	920.1594808636164	2170.289040346843	1016.761767055345	967.5607568404606	2459.634013884015	227.664644013847	926.135933173686	2421.709399708815	223.1202031977955	959.8379218466866	2439.875832032179	303.7044168874691	908.4005764334943	2400.506109739555	303.349158267501	944.0797401217397	2386.977462084257	655.342473519951	871.5393747613081	2333.717450479905	615.0848662627913	899.690325389549	2314.341057830498	737.8707832638404	860.4982887753879	2265.271089730059	701.8297300519148	891.5644642367588	2316.190523037676	945.9880539896956	1132.690338598665	1721.934563985098	209.7379583792902	1075.650905087693	1622.544509592024	356.8423596789331	1031.640602361799	1633.918861314632	337.7909853794802	1075.424847936299	1669.477893793331	359.8823732933297	1041.555721724246	2287.778690370488	1008.309547916385	1153.713756510745	1658.78256986502	188.1580345808991	1121.935941096358	2178.831907073694	1015.807346551797	1064.144154817506	1758.169638667993	366.2718778978357	1111.013905075782	1739.74125429942	394.8621922082584	1068.649159451706	1814.97072379968	423.4432073007575	1122.206856387986	1796.631179417296	450.0088142056682	1079.399327172674	2086.438479647052	610.8305060111704	1158.800006661495	2027.002170350772	637.6504059563466	1124.447380101996	2121.144110650924	714.5895364202332	1176.070458686543	2064.98123157045	739.6946596899	1142.263292851971	
564	3.753333333333333	2315.984760375808	962.3629381983475	914.5124197943577	2454.325696744791	54.77186620149131	992.3246639073701	2475.653253021891	82.17317125561655	947.7351853711297	2445.257971683267	103.5778666595366	991.1365330111257	2252.86565548297	1037.986668900208	868.8789308568508	2636.967420360702	151.1221156162084	1021.182488287297	2614.581355461035	127.9283452930875	919.9862947085886	2169.730214095112	1015.716160148233	967.940620605879	2469.813051966025	223.5341496209069	926.0492521120707	2432.607022451808	216.8402746175265	960.4419305973237	2445.72187431769	298.5005557972307	908.4385047793419	2406.976899898719	295.9212300498941	944.8212450414237	2381.676432256933	650.1891521538338	870.3221723977148	2328.294762491897	611.3725849672353	900.1424303153764	2310.587683338259	734.177707726693	860.0877744252916	2261.356629845239	699.389219190296	892.3009284167715	2317.002283438211	946.2437573005888	1132.30456838629	1711.661541231767	224.0496525944189	1074.021802553109	1619.083226076269	374.2905049942308	1027.414068044459	1629.075016345313	355.3338709401846	1071.467070975027	1665.735860718725	375.531019224716	1037.667968442284	2288.035257201601	1008.676803972761	1153.59326836141	1647.38488053182	205.7910879493753	1119.691487006686	2178.995528989025	1015.284867211482	1064.587985224793	1754.253906061517	378.1286585285441	1108.699143172806	1737.841173488004	407.6343250459129	1066.141372815114	1813.793892080899	432.40003322521	1120.694150443883	1797.361109083503	459.8565043296304	1077.703491496324	2090.759561664055	608.6394650218915	1160.320535406835	2030.955145088972	634.6640764001269	1126.008354627919	2124.381867389876	712.7378111022368	1177.15734566406	2067.634523760428	737.1905871160925	1143.762798732538	
565	3.76	2315.25401799943	961.1679637381461	913.9647644352464	2471.845561680665	48.33123355730424	992.673892502063	2491.498440714437	76.79214499412163	947.8612534722814	2459.657792879254	96.70371841232362	990.8911141700261	2252.185821296506	1036.389836973195	868.9355143293744	2649.076430140662	156.6976461862	1020.643532413747	2627.883217413155	131.144854639675	919.5898807928419	2169.14775045814	1014.156499334792	968.2657943355467	2477.448000277227	219.5901339657185	925.7350842136256	2440.824729569446	211.0564357210718	960.6012053163254	2449.762874659126	293.5590096761262	908.3547580445397	2411.551182441216	289.055169123341	945.2533684016536	2376.673895640211	644.7835341782829	869.3751356633526	2323.136410346862	607.3893060005925	900.7760565422832	2307.148711443486	730.1809569225366	859.7917954355853	2257.749379946562	696.6375504556445	893.0709648190584	2317.868090437261	946.1418322760941	1131.837675454487	1703.029939049105	238.2856674026579	1072.298466229257	1617.588210501595	391.5530868834343	1023.407282531523	1626.207986324068	372.6431727037253	1067.673276276774	1663.872709695205	390.9367855365853	1034.069002326608	2288.204117460748	1008.625666751763	1153.406303825569	1637.757978303365	223.4850420898065	1117.28999926515	2179.10600532241	1014.200124441893	1064.945918291009	1751.994143450132	389.6731644109408	1106.591318211799	1737.64517252917	419.9924520987769	1063.833033486977	1814.120445099122	440.9056345726565	1119.414135791511	1799.642050459938	469.1589147919282	1076.256642501868	2095.692682429602	605.8353898037886	1162.080205123541	2035.517931023049	630.9026862096384	1127.705880908532	2128.022724536182	710.3570449874629	1178.330967870198	2070.723161915114	733.9936740500561	1145.182909657308	
566	3.766666666666667	2314.543676281036	959.7790390833778	913.3621449895387	2484.620177114301	42.61783242217801	992.3111817887285	2502.986120116019	71.92377191882753	947.4319848313007	2469.954551957874	90.56616436937645	990.1242430253748	2251.362482577056	1034.611392066502	868.9742255105319	2657.099604432693	160.4154028967046	1020.016029999469	2637.076515094222	133.1056391062122	919.0594926654651	2168.562392984437	1012.079118496953	968.567343187077	2482.454999534191	215.6157105676787	925.2202662139447	2446.221015496833	205.5905110913411	960.3191500282749	2451.990177701774	288.7573887417741	908.1330817411839	2414.151893840203	282.6795844658372	945.3297157322208	2372.129066635659	639.2738882610457	868.7532184831487	2318.389525847123	603.2157751735213	901.5318733327606	2304.114091677814	725.973979304155	859.6328045722092	2254.539029541383	693.6146107455338	893.8412372863315	2318.797277475579	945.6429996206493	1131.308258732863	1696.164400262239	252.290752158533	1070.550853185283	1618.231326168003	408.5429432245355	1019.700400416616	1625.477860014897	389.6145259314277	1064.132199975935	1664.078348673275	405.9835717745021	1030.8542734807	2288.319105230146	1008.110531394131	1153.168659449283	1630.005952575063	241.0391349588683	1114.816353072068	2179.181189146278	1012.533818751198	1065.241655320172	1751.50070944795	400.7598471549063	1104.757927279433	1739.232335817909	431.7792535618817	1061.800682155624	1816.021044775937	448.8416310177797	1118.418361070045	1803.51698539655	477.7876169942973	1075.11499095541	2101.179171041926	602.4518429775355	1164.039319229592	2040.648692423008	626.4188099330845	1129.49510828648	2132.026933369499	707.4675686455081	1179.572312074036	2074.232738349325	730.1362603971529	1146.489703853566	
